<?xml version="1.0" standalone="no"?>
<!DOCTYPE svg PUBLIC "-//W3C//DTD SVG 20010904//EN"
 "http://www.w3.org/TR/2001/REC-SVG-20010904/DTD/svg10.dtd">
<svg version="1.0" xmlns="http://www.w3.org/2000/svg"
 width="90.000000pt" height="90.000000pt" viewBox="0 0 90.000000 90.000000"
 preserveAspectRatio="xMidYMid meet">
<metadata>
Created by potrace 1.11, written by Peter Selinger 2001-2013
</metadata>
<g transform="translate(0.000000,90.000000) scale(0.100000,-0.100000)"
fill="#000000" stroke="none">
<path d="M339 885 c-77 -21 -140 -57 -196 -113 -148 -147 -177 -385 -63 -514
115 -132 328 -121 461 24 28 30 83 42 59 13 -17 -21 -7 -29 19 -16 26 14 54
68 47 88 -5 12 18 73 28 73 1 0 0 -14 -2 -31 -3 -24 -1 -30 9 -27 8 3 15 17
16 32 2 32 8 40 21 32 12 -7 -4 -100 -23 -136 -19 -34 -55 -73 -88 -95 -43
-28 -51 -51 -27 -75 l20 -20 -22 -10 c-13 -5 -40 -16 -61 -24 -43 -18 -56 -41
-34 -63 14 -14 22 -14 62 -3 26 7 72 30 103 50 223 144 287 435 142 646 -98
142 -303 216 -471 169z m181 -147 c39 -12 93 -42 116 -65 13 -14 13 -17 -2
-34 -12 -14 -31 -19 -66 -19 -35 0 -48 -4 -46 -12 3 -7 14 -14 26 -16 31 -5
17 -22 -17 -22 -15 0 -36 -6 -47 -14 -19 -14 -19 -15 0 -22 11 -4 38 -1 62 8
l43 15 -30 -37 c-19 -23 -37 -36 -47 -34 -22 5 -70 -38 -78 -70 -5 -21 -3 -25
10 -20 9 3 16 11 17 18 0 6 4 2 9 -9 19 -48 -125 -149 -211 -148 -118 2 -178
98 -149 238 39 190 226 301 410 243z"/>
<path d="M503 149 c-15 -15 -5 -39 17 -39 22 0 32 24 17 39 -6 6 -14 11 -17
11 -3 0 -11 -5 -17 -11z"/>
<path d="M409 53 c-26 -30 -18 -48 21 -48 28 0 35 4 35 19 0 10 -9 25 -21 32
-18 12 -23 12 -35 -3z"/>
</g>
</svg>
